Jump_normalized_pl07_filtered_grf
version=1
nRows=15
nColumns=37
inDegrees=yes
endheader
time		1_ground_force_vx		1_ground_force_vy		1_ground_force_vz		1_ground_force_px		1_ground_force_py		1_ground_force_pz		1_ground_torque_x		1_ground_torque_y		1_ground_torque_z		2_ground_force_vx		2_ground_force_vy		2_ground_force_vz		2_ground_force_px		2_ground_force_py		2_ground_force_pz		2_ground_torque_x		2_ground_torque_y		2_ground_torque_z		3_ground_force_vx		3_ground_force_vy		3_ground_force_vz		3_ground_force_px		3_ground_force_py		3_ground_force_pz		3_ground_torque_x		3_ground_torque_y		3_ground_torque_z		4_ground_force_vx		4_ground_force_vy		4_ground_force_vz		4_ground_force_px		4_ground_force_py		4_ground_force_pz		4_ground_torque_x		4_ground_torque_y		4_ground_torque_z		
0.058667		-0.000000		0.000000		0.000000		0.137786		0.000000		0.235046		0.000000		0.000000		-0.000000		-0.000000		0.000000		0.000000		-0.149475		0.000000		0.264626		0.000000		-0.000000		0.000000		17.397898		197.997196		304.382228		0.374692		1.309778		1.917833		-0.918176		-10.449318		-16.063796		-4.161448		389.357207		454.515607		-0.265653		1.309136		1.928993		2.116509		-45.143341		71.785067		
0.060308		-0.000000		0.000000		0.000000		0.137786		0.000000		0.235046		0.000000		0.000000		-0.000000		-0.000000		0.000000		0.000000		-0.149475		0.000000		0.264626		0.000000		-0.000000		0.000000		17.619359		193.716886		299.148196		0.374703		1.309811		1.917900		-0.929803		-10.222770		-15.786559		-4.163153		384.636385		456.565974		-0.265641		1.309152		1.929012		2.158476		-45.610576		71.358496		
0.061949		0.000000		-0.000000		-0.000000		0.137786		0.000000		0.235046		-0.000000		-0.000000		0.000000		-0.000000		-0.000000		0.000000		-0.149475		0.000000		0.264626		-0.000000		0.000000		-0.000000		17.824641		189.343674		293.498907		0.374706		1.309829		1.917964		-0.940524		-9.990789		-15.486578		-4.246956		379.884433		458.565262		-0.265626		1.309168		1.929028		2.199039		-46.069587		70.923380		
0.063591		0.000000		-0.000000		-0.000000		0.137786		0.000000		0.235046		-0.000000		-0.000000		0.000000		-0.000000		-0.000000		-0.000000		-0.149475		0.000000		0.264626		-0.000000		0.000000		-0.000000		18.029990		184.873959		287.403248		0.374705		1.309835		1.918022		-0.951294		-9.754278		-15.163906		-4.420383		375.091744		460.511665		-0.265612		1.309186		1.929041		2.238184		-46.520006		70.478252		
0.065232		0.000000		-0.000000		-0.000000		0.137786		0.000000		0.235046		-0.000000		-0.000000		0.000000		-0.000000		-0.000000		-0.000000		-0.149475		0.000000		0.264626		-0.000000		0.000000		-0.000000		18.253707		180.309208		280.854209		0.374701		1.309832		1.918078		-0.963189		-9.514332		-14.819766		-4.686478		370.245424		462.403589		-0.265597		1.309203		1.929051		2.275680		-46.961750		70.021352		
0.066874		0.000000		-0.000000		-0.000000		0.137786		0.000000		0.235046		-0.000000		-0.000000		0.000000		-0.000000		-0.000000		-0.000000		-0.149475		0.000000		0.264626		-0.000000		0.000000		-0.000000		18.499385		175.658224		273.859593		0.374696		1.309815		1.918125		-0.976507		-9.272275		-14.455922		-5.039267		365.339334		464.230825		-0.265580		1.309221		1.929055		2.311946		-47.393360		69.551437		
0.068515		0.000000		-0.000000		-0.000000		0.137786		0.000000		0.235046		-0.000000		-0.000000		0.000000		-0.000000		-0.000000		-0.000000		-0.149475		0.000000		0.264626		-0.000000		0.000000		-0.000000		18.781719		170.937450		266.432855		0.374689		1.309789		1.918168		-0.992136		-9.029692		-14.074192		-5.473679		360.362542		465.983194		-0.265563		1.309239		1.929056		2.346567		-47.813614		69.066523		
0.070157		0.000000		-0.000000		-0.000000		0.137786		0.000000		0.235046		-0.000000		-0.000000		0.000000		-0.000000		-0.000000		-0.000000		-0.149475		0.000000		0.264626		-0.000000		0.000000		-0.000000		19.112467		166.163633		258.596888		0.374681		1.309757		1.918208		-1.010821		-8.788060		-13.676668		-5.982994		355.303963		467.646023		-0.265545		1.309257		1.929052		2.378681		-48.220682		68.564227		
0.071798		0.000000		-0.000000		-0.000000		0.137786		0.000000		0.235046		-0.000000		-0.000000		0.000000		0.000000		-0.000000		-0.000000		-0.149475		0.000000		0.264626		-0.000000		0.000000		-0.000000		19.481918		161.362158		250.402357		0.374676		1.309719		1.918242		-1.032148		-8.548912		-13.266230		-6.545439		350.170297		469.198193		-0.265525		1.309275		1.929041		2.408635		-48.611348		68.044212		
0.073439		0.000000		-0.000000		-0.000000		0.137786		0.000000		0.235046		-0.000000		-0.000000		0.000000		0.000000		-0.000000		-0.000000		-0.149475		0.000000		0.264626		-0.000000		0.000000		-0.000000		19.895702		156.548789		241.901234		0.374670		1.309679		1.918274		-1.056509		-8.313102		-12.845513		-7.150143		344.956887		470.625881		-0.265507		1.309292		1.929026		2.434824		-48.983915		67.504809		
0.075081		0.000000		-0.000000		-0.000000		0.137786		0.000000		0.235046		-0.000000		-0.000000		0.000000		0.000000		-0.000000		-0.000000		-0.149475		0.000000		0.264626		-0.000000		0.000000		-0.000000		20.345944		151.734254		233.148505		0.374666		1.309639		1.918303		-1.083579		-8.081002		-12.416926		-7.779802		339.669618		471.907104		-0.265487		1.309309		1.929006		2.456276		-49.335222		66.945290		
0.076722		-0.000000		-0.000000		-0.000000		0.137786		0.000000		0.235046		-0.000000		-0.000000		0.000000		0.000000		-0.000000		-0.000000		-0.149475		0.000000		0.264626		-0.000000		0.000000		-0.000000		20.811560		146.925294		224.203962		0.374663		1.309603		1.918331		-1.112278		-7.852418		-11.982565		-8.415818		334.319515		473.023576		-0.265467		1.309326		1.928978		-0.370363		14.712588		20.816654		
0.078364		-0.000000		0.000000		0.000000		0.137786		0.000000		0.235046		0.000000		0.000000		-0.000000		0.000000		0.000000		-0.000000		-0.149475		0.000000		0.264626		0.000000		-0.000000		0.000000		21.280079		142.108609		215.128853		0.374659		1.309571		1.918358		-1.141932		-7.625803		-11.544193		-9.045653		328.917182		473.963221		-0.265449		1.309343		1.928946		-0.399814		14.537895		20.948853		
0.080005		-0.000000		0.000000		0.000000		0.137786		0.000000		0.235046		0.000000		0.000000		-0.000000		0.000000		0.000000		0.000000		-0.149475		0.000000		0.264626		0.000000		-0.000000		0.000000		21.726908		137.262240		205.973467		0.374657		1.309543		1.918383		-1.171161		-7.398947		-11.102737		-9.651242		323.483220		474.708597		-0.265431		1.309359		1.928910		-0.428404		14.358929		21.071595		
0.081646		-0.000000		0.000000		0.000000		0.137786		0.000000		0.235046		0.000000		0.000000		-0.000000		0.000000		0.000000		0.000000		-0.149475		0.000000		0.264626		0.000000		-0.000000		0.000000		22.129263		132.353138		196.775123		0.374656		1.309523		1.918406		-1.198618		-7.168792		-10.658143		-10.232214		318.018367		475.253910		-0.265417		1.309375		1.928868		-0.456091		14.175261		21.183864		
